<?xml version="1.0" encoding="UTF-8" standalone="no"?>
<!DOCTYPE svg PUBLIC "-//W3C//DTD SVG 1.1//EN"
 "http://www.w3.org/Graphics/SVG/1.1/DTD/svg11.dtd">
<!-- Generated by graphviz version 11.0.0 (20240428.1522)
 -->
<!-- Title: unnamed Pages: 1 -->
<svg width="100%" height="100%" xmlns="http://www.w3.org/2000/svg" xmlns:xlink="http://www.w3.org/1999/xlink">
<script type="text/ecmascript"><![CDATA[
/**
 *  SVGPan library 1.2.2
 * ======================
 *
 * Given an unique existing element with id "viewport" (or when missing, the
 * first g-element), including the library into any SVG adds the following
 * capabilities:
 *
 *  - Mouse panning
 *  - Mouse zooming (using the wheel)
 *  - Object dragging
 *
 * You can configure the behaviour of the pan/zoom/drag with the variables
 * listed in the CONFIGURATION section of this file.
 *
 * Known issues:
 *
 *  - Zooming (while panning) on Safari has still some issues
 *
 * Releases:
 *
 * 1.2.2, Tue Aug 30 17:21:56 CEST 2011, Andrea Leofreddi
 *	- Fixed viewBox on root tag (#7)
 *	- Improved zoom speed (#2)
 *
 * 1.2.1, Mon Jul  4 00:33:18 CEST 2011, Andrea Leofreddi
 *	- Fixed a regression with mouse wheel (now working on Firefox 5)
 *	- Working with viewBox attribute (#4)
 *	- Added "use strict;" and fixed resulting warnings (#5)
 *	- Added configuration variables, dragging is disabled by default (#3)
 *
 * 1.2, Sat Mar 20 08:42:50 GMT 2010, Zeng Xiaohui
 *	Fixed a bug with browser mouse handler interaction
 *
 * 1.1, Wed Feb  3 17:39:33 GMT 2010, Zeng Xiaohui
 *	Updated the zoom code to support the mouse wheel on Safari/Chrome
 *
 * 1.0, Andrea Leofreddi
 *	First release
 *
 * This code is licensed under the following BSD license:
 *
 * Copyright 2009-2017 Andrea Leofreddi <a.leofreddi@vleo.net>. All rights reserved.
 *
 * Redistribution and use in source and binary forms, with or without modification, are
 * permitted provided that the following conditions are met:
 *
 *    1. Redistributions of source code must retain the above copyright
 *       notice, this list of conditions and the following disclaimer.
 *    2. Redistributions in binary form must reproduce the above copyright
 *       notice, this list of conditions and the following disclaimer in the
 *       documentation and/or other materials provided with the distribution.
 *    3. Neither the name of the copyright holder nor the names of its
 *       contributors may be used to endorse or promote products derived from
 *       this software without specific prior written permission.
 *
 * THIS SOFTWARE IS PROVIDED BY COPYRIGHT HOLDERS AND CONTRIBUTORS ''AS IS'' AND ANY EXPRESS
 * OR IMPLIED WARRANTIES, INCLUDING, BUT NOT LIMITED TO, THE IMPLIED WARRANTIES OF MERCHANTABILITY
 * AND FITNESS FOR A PARTICULAR PURPOSE ARE DISCLAIMED. IN NO EVENT SHALL COPYRIGHT HOLDERS OR
 * CONTRIBUTORS BE LIABLE FOR ANY DIRECT, INDIRECT, INCIDENTAL, SPECIAL, EXEMPLARY, OR
 * CONSEQUENTIAL DAMAGES (INCLUDING, BUT NOT LIMITED TO, PROCUREMENT OF SUBSTITUTE GOODS OR
 * SERVICES; LOSS OF USE, DATA, OR PROFITS; OR BUSINESS INTERRUPTION) HOWEVER CAUSED AND ON
 * ANY THEORY OF LIABILITY, WHETHER IN CONTRACT, STRICT LIABILITY, OR TORT (INCLUDING
 * NEGLIGENCE OR OTHERWISE) ARISING IN ANY WAY OUT OF THE USE OF THIS SOFTWARE, EVEN IF
 * ADVISED OF THE POSSIBILITY OF SUCH DAMAGE.
 *
 * The views and conclusions contained in the software and documentation are those of the
 * authors and should not be interpreted as representing official policies, either expressed
 * or implied, of Andrea Leofreddi.
 */

"use strict";

/// CONFIGURATION
/// ====>

var enablePan = 1; // 1 or 0: enable or disable panning (default enabled)
var enableZoom = 1; // 1 or 0: enable or disable zooming (default enabled)
var enableDrag = 0; // 1 or 0: enable or disable dragging (default disabled)
var zoomScale = 0.2; // Zoom sensitivity

/// <====
/// END OF CONFIGURATION

var root = document.documentElement;

var state = 'none', svgRoot = null, stateTarget, stateOrigin, stateTf;

setupHandlers(root);

/**
 * Register handlers
 */
function setupHandlers(root){
	setAttributes(root, {
		"onmouseup" : "handleMouseUp(evt)",
		"onmousedown" : "handleMouseDown(evt)",
		"onmousemove" : "handleMouseMove(evt)",
		//"onmouseout" : "handleMouseUp(evt)", // Decomment this to stop the pan functionality when dragging out of the SVG element
	});

	if(navigator.userAgent.toLowerCase().indexOf('webkit') >= 0)
		window.addEventListener('mousewheel', handleMouseWheel, false); // Chrome/Safari
	else
		window.addEventListener('DOMMouseScroll', handleMouseWheel, false); // Others
}

/**
 * Retrieves the root element for SVG manipulation. The element is then cached into the svgRoot global variable.
 */
function getRoot(root) {
	if(svgRoot == null) {
		var r = root.getElementById("viewport") ? root.getElementById("viewport") : root.documentElement, t = r;

		while(t != root) {
			if(t.getAttribute("viewBox")) {
				setCTM(r, t.getCTM());

				t.removeAttribute("viewBox");
			}

			t = t.parentNode;
		}

		svgRoot = r;
	}

	return svgRoot;
}

/**
 * Instance an SVGPoint object with given event coordinates.
 */
function getEventPoint(evt) {
	var p = root.createSVGPoint();

	p.x = evt.clientX;
	p.y = evt.clientY;

	return p;
}

/**
 * Sets the current transform matrix of an element.
 */
function setCTM(element, matrix) {
	var s = "matrix(" + matrix.a + "," + matrix.b + "," + matrix.c + "," + matrix.d + "," + matrix.e + "," + matrix.f + ")";

	element.setAttribute("transform", s);
}

/**
 * Dumps a matrix to a string (useful for debug).
 */
function dumpMatrix(matrix) {
	var s = "[ " + matrix.a + ", " + matrix.c + ", " + matrix.e + "\n  " + matrix.b + ", " + matrix.d + ", " + matrix.f + "\n  0, 0, 1 ]";

	return s;
}

/**
 * Sets attributes of an element.
 */
function setAttributes(element, attributes){
	for (var i in attributes)
		element.setAttributeNS(null, i, attributes[i]);
}

/**
 * Handle mouse wheel event.
 */
function handleMouseWheel(evt) {
	if(!enableZoom)
		return;

	if(evt.preventDefault)
		evt.preventDefault();

	evt.returnValue = false;

	var svgDoc = evt.target.ownerDocument;

	var delta;

	if(evt.wheelDelta)
		delta = evt.wheelDelta / 360; // Chrome/Safari
	else
		delta = evt.detail / -9; // Mozilla

	var z = Math.pow(1 + zoomScale, delta);

	var g = getRoot(svgDoc);
	
	var p = getEventPoint(evt);

	p = p.matrixTransform(g.getCTM().inverse());

	// Compute new scale matrix in current mouse position
	var k = root.createSVGMatrix().translate(p.x, p.y).scale(z).translate(-p.x, -p.y);

        setCTM(g, g.getCTM().multiply(k));

	if(typeof(stateTf) == "undefined")
		stateTf = g.getCTM().inverse();

	stateTf = stateTf.multiply(k.inverse());
}

/**
 * Handle mouse move event.
 */
function handleMouseMove(evt) {
	if(evt.preventDefault)
		evt.preventDefault();

	evt.returnValue = false;

	var svgDoc = evt.target.ownerDocument;

	var g = getRoot(svgDoc);

	if(state == 'pan' && enablePan) {
		// Pan mode
		var p = getEventPoint(evt).matrixTransform(stateTf);

		setCTM(g, stateTf.inverse().translate(p.x - stateOrigin.x, p.y - stateOrigin.y));
	} else if(state == 'drag' && enableDrag) {
		// Drag mode
		var p = getEventPoint(evt).matrixTransform(g.getCTM().inverse());

		setCTM(stateTarget, root.createSVGMatrix().translate(p.x - stateOrigin.x, p.y - stateOrigin.y).multiply(g.getCTM().inverse()).multiply(stateTarget.getCTM()));

		stateOrigin = p;
	}
}

/**
 * Handle click event.
 */
function handleMouseDown(evt) {
	if(evt.preventDefault)
		evt.preventDefault();

	evt.returnValue = false;

	var svgDoc = evt.target.ownerDocument;

	var g = getRoot(svgDoc);

	if(
		evt.target.tagName == "svg"
		|| !enableDrag // Pan anyway when drag is disabled and the user clicked on an element
	) {
		// Pan mode
		state = 'pan';

		stateTf = g.getCTM().inverse();

		stateOrigin = getEventPoint(evt).matrixTransform(stateTf);
	} else {
		// Drag mode
		state = 'drag';

		stateTarget = evt.target;

		stateTf = g.getCTM().inverse();

		stateOrigin = getEventPoint(evt).matrixTransform(stateTf);
	}
}

/**
 * Handle mouse button release event.
 */
function handleMouseUp(evt) {
	if(evt.preventDefault)
		evt.preventDefault();

	evt.returnValue = false;

	var svgDoc = evt.target.ownerDocument;

	if(state == 'pan' || state == 'drag') {
		// Quit pan mode
		state = '';
	}
}
]]></script><g id="viewport" transform="scale(0.5,0.5) translate(0,0)"><g id="graph0" class="graph" transform="scale(1 1) rotate(0) translate(4 1125.25)">
<title>unnamed</title>
<polygon fill="white" stroke="none" points="-4,4 -4,-1125.25 1055.88,-1125.25 1055.88,4 -4,4"/>
<g id="clust1" class="cluster">
<title>cluster_L</title>
<polygon fill="none" stroke="black" points="8,-976.5 8,-1113.25 490,-1113.25 490,-976.5 8,-976.5"/>
</g>
<!-- Type: alloc_space -->
<g id="node1" class="node">
<title>Type: alloc_space</title>
<polygon fill="#f8f8f8" stroke="black" points="482,-1105.25 16,-1105.25 16,-984.5 482,-984.5 482,-1105.25"/>
<text text-anchor="start" x="24" y="-1086.05" font-family="Times,serif" font-size="16.00">Type: alloc_space</text>
<text text-anchor="start" x="24" y="-1067.3" font-family="Times,serif" font-size="16.00">Time: Jul 7, 2024 at 12:59pm (IST)</text>
<text text-anchor="start" x="24" y="-1048.55" font-family="Times,serif" font-size="16.00">Showing nodes accounting for 604.77MB, 99.00% of 610.89MB total</text>
<text text-anchor="start" x="24" y="-1029.8" font-family="Times,serif" font-size="16.00">Dropped 19 nodes (cum &lt;= 3.05MB)</text>
<text text-anchor="start" x="24" y="-992.05" font-family="Times,serif" font-size="16.00">See https://git.io/JfYMW for how to read the graph</text>
</g>
<!-- N1 -->
<g id="node1" class="node">
<title>N1</title>
<g id="a_node1"><a xlink:title="github.com/amitiwary999/go&#45;cache.saveData (532.80MB)">
<polygon fill="#edd6d5" stroke="#b20700" points="640.38,-742.75 455.62,-742.75 455.62,-650.75 640.38,-650.75 640.38,-742.75"/>
<text text-anchor="middle" x="548" y="-721.65" font-family="Times,serif" font-size="18.00">go&#45;cache</text>
<text text-anchor="middle" x="548" y="-700.65" font-family="Times,serif" font-size="18.00">saveData</text>
<text text-anchor="middle" x="548" y="-679.65" font-family="Times,serif" font-size="18.00">116.50MB (19.07%)</text>
<text text-anchor="middle" x="548" y="-658.65" font-family="Times,serif" font-size="18.00">of 532.80MB (87.22%)</text>
</a>
</g>
</g>
<!-- NN1_0 -->
<g id="NN1_0" class="node">
<title>NN1_0</title>
<g id="a_NN1_0"><a xlink:title="116.50MB">
<polygon fill="#f8f8f8" stroke="black" points="575,-571.38 525,-571.38 521,-567.38 521,-535.38 571,-535.38 575,-539.38 575,-571.38"/>
<polyline fill="none" stroke="black" points="571,-567.38 521,-567.38"/>
<polyline fill="none" stroke="black" points="571,-567.38 571,-535.38"/>
<polyline fill="none" stroke="black" points="571,-567.38 575,-571.38"/>
<text text-anchor="middle" x="548" y="-550.65" font-family="Times,serif" font-size="8.00">16B</text>
</a>
</g>
</g>
<!-- N1&#45;&gt;NN1_0 -->
<g id="edge1" class="edge">
<title>N1&#45;&gt;NN1_0</title>
<g id="a_edge1"><a xlink:title="116.50MB">
<path fill="none" stroke="black" d="M548,-650.63C548,-628.52 548,-602.55 548,-583.16"/>
<polygon fill="black" stroke="black" points="551.5,-583.27 548,-573.27 544.5,-583.27 551.5,-583.27"/>
</a>
</g>
<g id="a_edge1&#45;label"><a xlink:title="116.50MB">
<text text-anchor="middle" x="579.5" y="-611.2" font-family="Times,serif" font-size="14.00"> 116.50MB</text>
</a>
</g>
</g>
<!-- N2 -->
<g id="node2" class="node">
<title>N2</title>
<g id="a_node2"><a xlink:title="github.com/amitiwary999/go&#45;cache.(*bigCacheRing).Save (348.79MB)">
<polygon fill="#edd9d5" stroke="#b21b00" points="733.75,-456 518.25,-456 518.25,-340 733.75,-340 733.75,-456"/>
<text text-anchor="middle" x="626" y="-429.2" font-family="Times,serif" font-size="24.00">go&#45;cache</text>
<text text-anchor="middle" x="626" y="-402.2" font-family="Times,serif" font-size="24.00">(*bigCacheRing)</text>
<text text-anchor="middle" x="626" y="-375.2" font-family="Times,serif" font-size="24.00">Save</text>
<text text-anchor="middle" x="626" y="-348.2" font-family="Times,serif" font-size="24.00">348.79MB (57.10%)</text>
</a>
</g>
</g>
<!-- N1&#45;&gt;N2 -->
<g id="edge18" class="edge">
<title>N1&#45;&gt;N2</title>
<g id="a_edge18"><a xlink:title="github.com/amitiwary999/go&#45;cache.saveData &#45;&gt; github.com/amitiwary999/go&#45;cache.(*bigCacheRing).Save (348.79MB)">
<path fill="none" stroke="#b21b00" stroke-width="3" d="M601.14,-650.54C605.41,-644.96 609.16,-639 612,-632.75 635.09,-581.93 637.44,-518.39 634.66,-470.39"/>
<polygon fill="#b21b00" stroke="#b21b00" stroke-width="3" points="638.16,-470.28 633.96,-460.55 631.18,-470.77 638.16,-470.28"/>
</a>
</g>
<g id="a_edge18&#45;label"><a xlink:title="github.com/amitiwary999/go&#45;cache.saveData &#45;&gt; github.com/amitiwary999/go&#45;cache.(*bigCacheRing).Save (348.79MB)">
<text text-anchor="middle" x="665.5" y="-548.33" font-family="Times,serif" font-size="14.00"> 348.79MB</text>
</a>
</g>
</g>
<!-- N5 -->
<g id="node5" class="node">
<title>N5</title>
<g id="a_node5"><a xlink:title="fmt.Sprintf (72.50MB)">
<polygon fill="#ede5df" stroke="#b27a48" points="892.25,-430.12 751.75,-430.12 751.75,-365.88 892.25,-365.88 892.25,-430.12"/>
<text text-anchor="middle" x="822" y="-410.93" font-family="Times,serif" font-size="16.00">fmt</text>
<text text-anchor="middle" x="822" y="-392.18" font-family="Times,serif" font-size="16.00">Sprintf</text>
<text text-anchor="middle" x="822" y="-373.43" font-family="Times,serif" font-size="16.00">72.50MB (11.87%)</text>
</a>
</g>
</g>
<!-- N1&#45;&gt;N5 -->
<g id="edge19" class="edge">
<title>N1&#45;&gt;N5</title>
<g id="a_edge19"><a xlink:title="github.com/amitiwary999/go&#45;cache.saveData &#45;&gt; fmt.Sprintf (67.50MB)">
<path fill="none" stroke="#b27f4f" d="M619.18,-650.47C646.49,-631.19 676.87,-607.26 701,-581.75 742.05,-538.36 778.25,-479.47 800.12,-440.4"/>
<polygon fill="#b27f4f" stroke="#b27f4f" points="803.12,-442.2 804.9,-431.75 797,-438.81 803.12,-442.2"/>
</a>
</g>
<g id="a_edge19&#45;label"><a xlink:title="github.com/amitiwary999/go&#45;cache.saveData &#45;&gt; fmt.Sprintf (67.50MB)">
<text text-anchor="middle" x="773.12" y="-548.33" font-family="Times,serif" font-size="14.00"> 67.50MB</text>
</a>
</g>
</g>
<!-- NN2_0 -->
<g id="NN2_0" class="node">
<title>NN2_0</title>
<g id="a_NN2_0"><a xlink:title="165.75MB">
<polygon fill="#f8f8f8" stroke="black" points="524,-281.25 474,-281.25 470,-277.25 470,-245.25 520,-245.25 524,-249.25 524,-281.25"/>
<polyline fill="none" stroke="black" points="520,-277.25 470,-277.25"/>
<polyline fill="none" stroke="black" points="520,-277.25 520,-245.25"/>
<polyline fill="none" stroke="black" points="520,-277.25 524,-281.25"/>
<text text-anchor="middle" x="497" y="-260.52" font-family="Times,serif" font-size="8.00">55.25MB</text>
</a>
</g>
</g>
<!-- N2&#45;&gt;NN2_0 -->
<g id="edge2" class="edge">
<title>N2&#45;&gt;NN2_0</title>
<g id="a_edge2"><a xlink:title="165.75MB">
<path fill="none" stroke="black" d="M531.71,-339.54C525.98,-334.04 520.66,-328.19 516,-322 509.57,-313.45 505.25,-302.62 502.38,-292.66"/>
<polygon fill="black" stroke="black" points="505.8,-291.88 500,-283.01 499,-293.56 505.8,-291.88"/>
</a>
</g>
<g id="a_edge2&#45;label"><a xlink:title="165.75MB">
<text text-anchor="middle" x="547.5" y="-308.7" font-family="Times,serif" font-size="14.00"> 165.75MB</text>
</a>
</g>
</g>
<!-- NN2_1 -->
<g id="NN2_1" class="node">
<title>NN2_1</title>
<g id="a_NN2_1"><a xlink:title="82.88MB">
<polygon fill="#f8f8f8" stroke="black" points="610,-281.25 560,-281.25 556,-277.25 556,-245.25 606,-245.25 610,-249.25 610,-281.25"/>
<polyline fill="none" stroke="black" points="606,-277.25 556,-277.25"/>
<polyline fill="none" stroke="black" points="606,-277.25 606,-245.25"/>
<polyline fill="none" stroke="black" points="606,-277.25 610,-281.25"/>
<text text-anchor="middle" x="583" y="-260.52" font-family="Times,serif" font-size="8.00">27.62MB</text>
</a>
</g>
</g>
<!-- N2&#45;&gt;NN2_1 -->
<g id="edge3" class="edge">
<title>N2&#45;&gt;NN2_1</title>
<g id="a_edge3"><a xlink:title="82.88MB">
<path fill="none" stroke="black" d="M593.07,-339.85C590.59,-333.95 588.42,-327.94 586.75,-322 584.16,-312.75 582.98,-302.35 582.52,-292.96"/>
<polygon fill="black" stroke="black" points="586.02,-293.18 582.3,-283.26 579.02,-293.34 586.02,-293.18"/>
</a>
</g>
<g id="a_edge3&#45;label"><a xlink:title="82.88MB">
<text text-anchor="middle" x="614.12" y="-308.7" font-family="Times,serif" font-size="14.00"> 82.88MB</text>
</a>
</g>
</g>
<!-- NN2_2 -->
<g id="NN2_2" class="node">
<title>NN2_2</title>
<g id="a_NN2_2"><a xlink:title="57.60MB">
<polygon fill="#f8f8f8" stroke="black" points="693.25,-281.25 634.75,-281.25 630.75,-277.25 630.75,-245.25 689.25,-245.25 693.25,-249.25 693.25,-281.25"/>
<polyline fill="none" stroke="black" points="689.25,-277.25 630.75,-277.25"/>
<polyline fill="none" stroke="black" points="689.25,-277.25 689.25,-245.25"/>
<polyline fill="none" stroke="black" points="689.25,-277.25 693.25,-281.25"/>
<text text-anchor="middle" x="662" y="-260.52" font-family="Times,serif" font-size="8.00">208B..6.91MB</text>
</a>
</g>
</g>
<!-- N2&#45;&gt;NN2_2 -->
<g id="edge4" class="edge">
<title>N2&#45;&gt;NN2_2</title>
<g id="a_edge4"><a xlink:title="57.60MB">
<path fill="none" stroke="black" d="M641.58,-339.55C645.99,-323.29 650.6,-306.3 654.32,-292.59"/>
<polygon fill="black" stroke="black" points="657.69,-293.5 656.93,-282.94 650.94,-291.67 657.69,-293.5"/>
</a>
</g>
<g id="a_edge4&#45;label"><a xlink:title="57.60MB">
<text text-anchor="middle" x="678.12" y="-308.7" font-family="Times,serif" font-size="14.00"> 57.60MB</text>
</a>
</g>
</g>
<!-- NN2_3 -->
<g id="NN2_3" class="node">
<title>NN2_3</title>
<g id="a_NN2_3"><a xlink:title="41.44MB">
<polygon fill="#f8f8f8" stroke="black" points="768,-281.25 718,-281.25 714,-277.25 714,-245.25 764,-245.25 768,-249.25 768,-281.25"/>
<polyline fill="none" stroke="black" points="764,-277.25 714,-277.25"/>
<polyline fill="none" stroke="black" points="764,-277.25 764,-245.25"/>
<polyline fill="none" stroke="black" points="764,-277.25 768,-281.25"/>
<text text-anchor="middle" x="741" y="-260.52" font-family="Times,serif" font-size="8.00">13.81MB</text>
</a>
</g>
</g>
<!-- N2&#45;&gt;NN2_3 -->
<g id="edge5" class="edge">
<title>N2&#45;&gt;NN2_3</title>
<g id="a_edge5"><a xlink:title="41.44MB">
<path fill="none" stroke="black" d="M694.57,-339.6C700.05,-333.89 705.28,-327.99 710,-322 717.19,-312.88 723.57,-301.85 728.65,-291.88"/>
<polygon fill="black" stroke="black" points="731.75,-293.51 732.97,-282.99 725.45,-290.46 731.75,-293.51"/>
</a>
</g>
<g id="a_edge5&#45;label"><a xlink:title="41.44MB">
<text text-anchor="middle" x="749.12" y="-308.7" font-family="Times,serif" font-size="14.00"> 41.44MB</text>
</a>
</g>
</g>
<!-- N3 -->
<g id="node3" class="node">
<title>N3</title>
<g id="a_node3"><a xlink:title="testing.(*B).run1.func1 (603.94MB)">
<polygon fill="#edd5d5" stroke="#b20000" points="596.12,-1073.25 499.88,-1073.25 499.88,-1016.5 596.12,-1016.5 596.12,-1073.25"/>
<text text-anchor="middle" x="548" y="-1061.65" font-family="Times,serif" font-size="8.00">testing</text>
<text text-anchor="middle" x="548" y="-1051.9" font-family="Times,serif" font-size="8.00">(*B)</text>
<text text-anchor="middle" x="548" y="-1042.15" font-family="Times,serif" font-size="8.00">run1</text>
<text text-anchor="middle" x="548" y="-1032.4" font-family="Times,serif" font-size="8.00">func1</text>
<text text-anchor="middle" x="548" y="-1022.65" font-family="Times,serif" font-size="8.00">0 of 603.94MB (98.86%)</text>
</a>
</g>
</g>
<!-- N17 -->
<g id="node17" class="node">
<title>N17</title>
<g id="a_node17"><a xlink:title="testing.(*B).runN (603.94MB)">
<polygon fill="#edd5d5" stroke="#b20000" points="596.12,-932 499.88,-932 499.88,-885 596.12,-885 596.12,-932"/>
<text text-anchor="middle" x="548" y="-920.4" font-family="Times,serif" font-size="8.00">testing</text>
<text text-anchor="middle" x="548" y="-910.65" font-family="Times,serif" font-size="8.00">(*B)</text>
<text text-anchor="middle" x="548" y="-900.9" font-family="Times,serif" font-size="8.00">runN</text>
<text text-anchor="middle" x="548" y="-891.15" font-family="Times,serif" font-size="8.00">0 of 603.94MB (98.86%)</text>
</a>
</g>
</g>
<!-- N3&#45;&gt;N17 -->
<g id="edge15" class="edge">
<title>N3&#45;&gt;N17</title>
<g id="a_edge15"><a xlink:title="testing.(*B).run1.func1 &#45;&gt; testing.(*B).runN (603.94MB)">
<path fill="none" stroke="#b20000" stroke-width="5" d="M548,-1016.03C548,-996.5 548,-970.12 548,-948.5"/>
<polygon fill="#b20000" stroke="#b20000" stroke-width="5" points="552.38,-948.63 548,-938.63 543.63,-948.63 552.38,-948.63"/>
</a>
</g>
<g id="a_edge15&#45;label"><a xlink:title="testing.(*B).run1.func1 &#45;&gt; testing.(*B).runN (603.94MB)">
<text text-anchor="middle" x="579.5" y="-953.2" font-family="Times,serif" font-size="14.00"> 603.94MB</text>
</a>
</g>
</g>
<!-- N4 -->
<g id="node4" class="node">
<title>N4</title>
<g id="a_node4"><a xlink:title="github.com/amitiwary999/go&#45;cache.BenchmarkBigCache (603.94MB)">
<polygon fill="#edd5d5" stroke="#b20000" points="596.12,-832.5 499.88,-832.5 499.88,-795.25 596.12,-795.25 596.12,-832.5"/>
<text text-anchor="middle" x="548" y="-820.9" font-family="Times,serif" font-size="8.00">go&#45;cache</text>
<text text-anchor="middle" x="548" y="-811.15" font-family="Times,serif" font-size="8.00">BenchmarkBigCache</text>
<text text-anchor="middle" x="548" y="-801.4" font-family="Times,serif" font-size="8.00">0 of 603.94MB (98.86%)</text>
</a>
</g>
</g>
<!-- N4&#45;&gt;N1 -->
<g id="edge17" class="edge">
<title>N4&#45;&gt;N1</title>
<g id="a_edge17"><a xlink:title="github.com/amitiwary999/go&#45;cache.BenchmarkBigCache &#45;&gt; github.com/amitiwary999/go&#45;cache.saveData (532.80MB)">
<path fill="none" stroke="#b20700" stroke-width="5" d="M548,-794.89C548,-785 548,-772.08 548,-758.92"/>
<polygon fill="#b20700" stroke="#b20700" stroke-width="5" points="552.38,-759.16 548,-749.16 543.63,-759.16 552.38,-759.16"/>
</a>
</g>
<g id="a_edge17&#45;label"><a xlink:title="github.com/amitiwary999/go&#45;cache.BenchmarkBigCache &#45;&gt; github.com/amitiwary999/go&#45;cache.saveData (532.80MB)">
<text text-anchor="middle" x="579.5" y="-763.95" font-family="Times,serif" font-size="14.00"> 532.80MB</text>
</a>
</g>
</g>
<!-- N7 -->
<g id="node7" class="node">
<title>N7</title>
<g id="a_node7"><a xlink:title="github.com/amitiwary999/go&#45;cache.Get (57.32MB)">
<polygon fill="#ede7e2" stroke="#b2895e" points="947.75,-727.75 840.25,-727.75 840.25,-665.75 947.75,-665.75 947.75,-727.75"/>
<text text-anchor="middle" x="894" y="-713.3" font-family="Times,serif" font-size="11.00">go&#45;cache</text>
<text text-anchor="middle" x="894" y="-699.8" font-family="Times,serif" font-size="11.00">Get</text>
<text text-anchor="middle" x="894" y="-686.3" font-family="Times,serif" font-size="11.00">7MB (1.15%)</text>
<text text-anchor="middle" x="894" y="-672.8" font-family="Times,serif" font-size="11.00">of 57.32MB (9.38%)</text>
</a>
</g>
</g>
<!-- N4&#45;&gt;N7 -->
<g id="edge20" class="edge">
<title>N4&#45;&gt;N7</title>
<g id="a_edge20"><a xlink:title="github.com/amitiwary999/go&#45;cache.BenchmarkBigCache &#45;&gt; github.com/amitiwary999/go&#45;cache.Get (57.32MB)">
<path fill="none" stroke="#b2895e" d="M596.47,-796.75C657.29,-776.51 761.79,-741.74 829.36,-719.26"/>
<polygon fill="#b2895e" stroke="#b2895e" points="830.06,-722.71 838.44,-716.24 827.85,-716.07 830.06,-722.71"/>
</a>
</g>
<g id="a_edge20&#45;label"><a xlink:title="github.com/amitiwary999/go&#45;cache.BenchmarkBigCache &#45;&gt; github.com/amitiwary999/go&#45;cache.Get (57.32MB)">
<text text-anchor="middle" x="728.12" y="-763.95" font-family="Times,serif" font-size="14.00"> 57.32MB</text>
</a>
</g>
</g>
<!-- N9 -->
<g id="node9" class="node">
<title>N9</title>
<g id="a_node9"><a xlink:title="github.com/amitiwary999/go&#45;cache.NewBigCacheRing (15.16MB)">
<polygon fill="#edecea" stroke="#b2ab9c" points="437.38,-715.38 348.62,-715.38 348.62,-678.12 437.38,-678.12 437.38,-715.38"/>
<text text-anchor="middle" x="393" y="-703.77" font-family="Times,serif" font-size="8.00">go&#45;cache</text>
<text text-anchor="middle" x="393" y="-694.02" font-family="Times,serif" font-size="8.00">NewBigCacheRing</text>
<text text-anchor="middle" x="393" y="-684.27" font-family="Times,serif" font-size="8.00">0 of 15.16MB (2.48%)</text>
</a>
</g>
</g>
<!-- N4&#45;&gt;N9 -->
<g id="edge23" class="edge">
<title>N4&#45;&gt;N9</title>
<g id="a_edge23"><a xlink:title="github.com/amitiwary999/go&#45;cache.BenchmarkBigCache &#45;&gt; github.com/amitiwary999/go&#45;cache.NewBigCacheRing (11.33MB)">
<path fill="none" stroke="#b2ada1" d="M515.18,-794.78C506.1,-789.43 496.38,-783.36 487.75,-777.25 464.25,-760.62 439.38,-739.6 421.02,-723.36"/>
<polygon fill="#b2ada1" stroke="#b2ada1" points="423.48,-720.86 413.69,-716.81 418.82,-726.08 423.48,-720.86"/>
</a>
</g>
<g id="a_edge23&#45;label"><a xlink:title="github.com/amitiwary999/go&#45;cache.BenchmarkBigCache &#45;&gt; github.com/amitiwary999/go&#45;cache.NewBigCacheRing (11.33MB)">
<text text-anchor="middle" x="515.12" y="-763.95" font-family="Times,serif" font-size="14.00"> 11.33MB</text>
</a>
</g>
</g>
<!-- NN5_0 -->
<g id="NN5_0" class="node">
<title>NN5_0</title>
<g id="a_NN5_0"><a xlink:title="72.50MB">
<polygon fill="#f8f8f8" stroke="black" points="849,-281.25 799,-281.25 795,-277.25 795,-245.25 845,-245.25 849,-249.25 849,-281.25"/>
<polyline fill="none" stroke="black" points="845,-277.25 795,-277.25"/>
<polyline fill="none" stroke="black" points="845,-277.25 845,-245.25"/>
<polyline fill="none" stroke="black" points="845,-277.25 849,-281.25"/>
<text text-anchor="middle" x="822" y="-260.52" font-family="Times,serif" font-size="8.00">16B</text>
</a>
</g>
</g>
<!-- N5&#45;&gt;NN5_0 -->
<g id="edge6" class="edge">
<title>N5&#45;&gt;NN5_0</title>
<g id="a_edge6"><a xlink:title="72.50MB">
<path fill="none" stroke="black" d="M822,-365.54C822,-343.52 822,-314.33 822,-292.94"/>
<polygon fill="black" stroke="black" points="825.5,-293.18 822,-283.18 818.5,-293.18 825.5,-293.18"/>
</a>
</g>
<g id="a_edge6&#45;label"><a xlink:title="72.50MB">
<text text-anchor="middle" x="850.12" y="-308.7" font-family="Times,serif" font-size="14.00"> 72.50MB</text>
</a>
</g>
</g>
<!-- N6 -->
<g id="node6" class="node">
<title>N6</title>
<g id="a_node6"><a xlink:title="github.com/amitiwary999/go&#45;cache.(*cacheRing[go.shape.string]).Set (30.32MB)">
<polygon fill="#edeae7" stroke="#b2a086" points="949,-186.5 837,-186.5 837,-88.5 949,-88.5 949,-186.5"/>
<text text-anchor="middle" x="893" y="-170.15" font-family="Times,serif" font-size="13.00">go&#45;cache</text>
<text text-anchor="middle" x="893" y="-155.15" font-family="Times,serif" font-size="13.00">(*cacheRing[go</text>
<text text-anchor="middle" x="893" y="-140.15" font-family="Times,serif" font-size="13.00">shape</text>
<text text-anchor="middle" x="893" y="-125.15" font-family="Times,serif" font-size="13.00">string])</text>
<text text-anchor="middle" x="893" y="-110.15" font-family="Times,serif" font-size="13.00">Set</text>
<text text-anchor="middle" x="893" y="-95.15" font-family="Times,serif" font-size="13.00">30.32MB (4.96%)</text>
</a>
</g>
</g>
<!-- NN6_0 -->
<g id="NN6_0" class="node">
<title>NN6_0</title>
<g id="a_NN6_0"><a xlink:title="10.37MB">
<polygon fill="#f8f8f8" stroke="black" points="808,-36 758,-36 754,-32 754,0 804,0 808,-4 808,-36"/>
<polyline fill="none" stroke="black" points="804,-32 754,-32"/>
<polyline fill="none" stroke="black" points="804,-32 804,0"/>
<polyline fill="none" stroke="black" points="804,-32 808,-36"/>
<text text-anchor="middle" x="781" y="-15.28" font-family="Times,serif" font-size="8.00">3.45MB</text>
</a>
</g>
</g>
<!-- N6&#45;&gt;NN6_0 -->
<g id="edge7" class="edge">
<title>N6&#45;&gt;NN6_0</title>
<g id="a_edge7"><a xlink:title="10.37MB">
<path fill="none" stroke="black" d="M836.78,-99.44C826,-90.76 815.4,-80.96 806.75,-70.5 800.91,-63.43 795.94,-54.81 791.98,-46.66"/>
<polygon fill="black" stroke="black" points="795.27,-45.45 787.98,-37.76 788.89,-48.32 795.27,-45.45"/>
</a>
</g>
<g id="a_edge7&#45;label"><a xlink:title="10.37MB">
<text text-anchor="middle" x="834.12" y="-57.2" font-family="Times,serif" font-size="14.00"> 10.37MB</text>
</a>
</g>
</g>
<!-- NN6_1 -->
<g id="NN6_1" class="node">
<title>NN6_1</title>
<g id="a_NN6_1"><a xlink:title="8MB">
<polygon fill="#f8f8f8" stroke="black" points="883,-36 833,-36 829,-32 829,0 879,0 883,-4 883,-36"/>
<polyline fill="none" stroke="black" points="879,-32 829,-32"/>
<polyline fill="none" stroke="black" points="879,-32 879,0"/>
<polyline fill="none" stroke="black" points="879,-32 883,-36"/>
<text text-anchor="middle" x="856" y="-15.28" font-family="Times,serif" font-size="8.00">48B</text>
</a>
</g>
</g>
<!-- N6&#45;&gt;NN6_1 -->
<g id="edge8" class="edge">
<title>N6&#45;&gt;NN6_1</title>
<g id="a_edge8"><a xlink:title="8MB">
<path fill="none" stroke="black" d="M877.74,-88.03C873.36,-74.14 868.74,-59.45 864.89,-47.22"/>
<polygon fill="black" stroke="black" points="868.26,-46.27 861.91,-37.78 861.58,-48.37 868.26,-46.27"/>
</a>
</g>
<g id="a_edge8&#45;label"><a xlink:title="8MB">
<text text-anchor="middle" x="887.12" y="-57.2" font-family="Times,serif" font-size="14.00"> 8MB</text>
</a>
</g>
</g>
<!-- NN6_2 -->
<g id="NN6_2" class="node">
<title>NN6_2</title>
<g id="a_NN6_2"><a xlink:title="5.35MB">
<polygon fill="#f8f8f8" stroke="black" points="955,-36 905,-36 901,-32 901,0 951,0 955,-4 955,-36"/>
<polyline fill="none" stroke="black" points="951,-32 901,-32"/>
<polyline fill="none" stroke="black" points="951,-32 951,0"/>
<polyline fill="none" stroke="black" points="951,-32 955,-36"/>
<text text-anchor="middle" x="928" y="-15.28" font-family="Times,serif" font-size="8.00">1.73MB</text>
</a>
</g>
</g>
<!-- N6&#45;&gt;NN6_2 -->
<g id="edge9" class="edge">
<title>N6&#45;&gt;NN6_2</title>
<g id="a_edge9"><a xlink:title="5.35MB">
<path fill="none" stroke="black" d="M907.44,-88.03C911.58,-74.14 915.95,-59.45 919.6,-47.22"/>
<polygon fill="black" stroke="black" points="922.9,-48.37 922.4,-37.79 916.19,-46.37 922.9,-48.37"/>
</a>
</g>
<g id="a_edge9&#45;label"><a xlink:title="5.35MB">
<text text-anchor="middle" x="940.75" y="-57.2" font-family="Times,serif" font-size="14.00"> 5.35MB</text>
</a>
</g>
</g>
<!-- NN6_3 -->
<g id="NN6_3" class="node">
<title>NN6_3</title>
<g id="a_NN6_3"><a xlink:title="3.16MB">
<polygon fill="#f8f8f8" stroke="black" points="1027,-36 977,-36 973,-32 973,0 1023,0 1027,-4 1027,-36"/>
<polyline fill="none" stroke="black" points="1023,-32 973,-32"/>
<polyline fill="none" stroke="black" points="1023,-32 1023,0"/>
<polyline fill="none" stroke="black" points="1023,-32 1027,-36"/>
<text text-anchor="middle" x="1000" y="-15.28" font-family="Times,serif" font-size="8.00">888kB</text>
</a>
</g>
</g>
<!-- N6&#45;&gt;NN6_3 -->
<g id="edge10" class="edge">
<title>N6&#45;&gt;NN6_3</title>
<g id="a_edge10"><a xlink:title="3.16MB">
<path fill="none" stroke="black" d="M949.4,-92.09C956.71,-85.23 963.8,-77.94 970,-70.5 976.15,-63.12 981.78,-54.33 986.47,-46.11"/>
<polygon fill="black" stroke="black" points="989.45,-47.95 991.14,-37.49 983.29,-44.61 989.45,-47.95"/>
</a>
</g>
<g id="a_edge10&#45;label"><a xlink:title="3.16MB">
<text text-anchor="middle" x="1005.75" y="-57.2" font-family="Times,serif" font-size="14.00"> 3.16MB</text>
</a>
</g>
</g>
<!-- N7&#45;&gt;N5 -->
<g id="edge29" class="edge">
<title>N7&#45;&gt;N5</title>
<g id="a_edge29"><a xlink:title="github.com/amitiwary999/go&#45;cache.Get &#45;&gt; fmt.Sprintf (4MB)">
<path fill="none" stroke="#b2b1ac" d="M869.82,-665.39C853.97,-643.53 834.61,-612.57 825.75,-581.75 812.36,-535.18 813.61,-479.14 816.8,-441.5"/>
<polygon fill="#b2b1ac" stroke="#b2b1ac" points="820.24,-442.23 817.69,-431.95 813.28,-441.58 820.24,-442.23"/>
</a>
</g>
<g id="a_edge29&#45;label"><a xlink:title="github.com/amitiwary999/go&#45;cache.Get &#45;&gt; fmt.Sprintf (4MB)">
<text text-anchor="middle" x="841.12" y="-548.33" font-family="Times,serif" font-size="14.00"> 4MB</text>
</a>
</g>
</g>
<!-- NN7_0 -->
<g id="NN7_0" class="node">
<title>NN7_0</title>
<g id="a_NN7_0"><a xlink:title="7MB">
<polygon fill="#f8f8f8" stroke="black" points="921,-571.38 871,-571.38 867,-567.38 867,-535.38 917,-535.38 921,-539.38 921,-571.38"/>
<polyline fill="none" stroke="black" points="917,-567.38 867,-567.38"/>
<polyline fill="none" stroke="black" points="917,-567.38 917,-535.38"/>
<polyline fill="none" stroke="black" points="917,-567.38 921,-571.38"/>
<text text-anchor="middle" x="894" y="-550.65" font-family="Times,serif" font-size="8.00">16B</text>
</a>
</g>
</g>
<!-- N7&#45;&gt;NN7_0 -->
<g id="edge11" class="edge">
<title>N7&#45;&gt;NN7_0</title>
<g id="a_edge11"><a xlink:title="7MB">
<path fill="none" stroke="black" d="M894,-665.42C894,-641.1 894,-607.2 894,-583.27"/>
<polygon fill="black" stroke="black" points="897.5,-583.28 894,-573.28 890.5,-583.28 897.5,-583.28"/>
</a>
</g>
<g id="a_edge11&#45;label"><a xlink:title="7MB">
<text text-anchor="middle" x="910.12" y="-611.2" font-family="Times,serif" font-size="14.00"> 7MB</text>
</a>
</g>
</g>
<!-- N8 -->
<g id="node8" class="node">
<title>N8</title>
<g id="a_node8"><a xlink:title="github.com/amitiwary999/go&#45;cache.(*bigCacheRing).Get (46.32MB)">
<polygon fill="#ede9e4" stroke="#b2936e" points="1051.88,-437.62 936.12,-437.62 936.12,-358.38 1051.88,-358.38 1051.88,-437.62"/>
<text text-anchor="middle" x="994" y="-422.23" font-family="Times,serif" font-size="12.00">go&#45;cache</text>
<text text-anchor="middle" x="994" y="-407.98" font-family="Times,serif" font-size="12.00">(*bigCacheRing)</text>
<text text-anchor="middle" x="994" y="-393.73" font-family="Times,serif" font-size="12.00">Get</text>
<text text-anchor="middle" x="994" y="-379.48" font-family="Times,serif" font-size="12.00">14.50MB (2.37%)</text>
<text text-anchor="middle" x="994" y="-365.23" font-family="Times,serif" font-size="12.00">of 46.32MB (7.58%)</text>
</a>
</g>
</g>
<!-- N7&#45;&gt;N8 -->
<g id="edge21" class="edge">
<title>N7&#45;&gt;N8</title>
<g id="a_edge21"><a xlink:title="github.com/amitiwary999/go&#45;cache.Get &#45;&gt; github.com/amitiwary999/go&#45;cache.(*bigCacheRing).Get (46.32MB)">
<path fill="none" stroke="#b2936e" d="M913.37,-665.45C919.28,-655.33 925.41,-643.8 930,-632.75 955.37,-571.58 973.74,-497.28 984.12,-449.11"/>
<polygon fill="#b2936e" stroke="#b2936e" points="987.5,-450.04 986.15,-439.53 980.65,-448.58 987.5,-450.04"/>
</a>
</g>
<g id="a_edge21&#45;label"><a xlink:title="github.com/amitiwary999/go&#45;cache.Get &#45;&gt; github.com/amitiwary999/go&#45;cache.(*bigCacheRing).Get (46.32MB)">
<text text-anchor="middle" x="992.12" y="-548.33" font-family="Times,serif" font-size="14.00"> 46.32MB</text>
</a>
</g>
</g>
<!-- N8&#45;&gt;N6 -->
<g id="edge22" class="edge">
<title>N8&#45;&gt;N6</title>
<g id="a_edge22"><a xlink:title="github.com/amitiwary999/go&#45;cache.(*bigCacheRing).Get &#45;&gt; github.com/amitiwary999/go&#45;cache.(*cacheRing[go.shape.string]).Set (30.32MB)">
<path fill="none" stroke="#b2a086" d="M950.51,-358.1C932.03,-338.85 912.34,-314.05 901.75,-287.5 890.57,-259.47 887.76,-226.11 888,-198.07"/>
<polygon fill="#b2a086" stroke="#b2a086" points="891.5,-198.4 888.23,-188.32 884.5,-198.23 891.5,-198.4"/>
</a>
</g>
<g id="a_edge22&#45;label"><a xlink:title="github.com/amitiwary999/go&#45;cache.(*bigCacheRing).Get &#45;&gt; github.com/amitiwary999/go&#45;cache.(*cacheRing[go.shape.string]).Set (30.32MB)">
<text text-anchor="middle" x="929.12" y="-258.2" font-family="Times,serif" font-size="14.00"> 30.32MB</text>
</a>
</g>
</g>
<!-- NN8_0 -->
<g id="NN8_0" class="node">
<title>NN8_0</title>
<g id="a_NN8_0"><a xlink:title="14.50MB">
<polygon fill="#f8f8f8" stroke="black" points="1021,-281.25 971,-281.25 967,-277.25 967,-245.25 1017,-245.25 1021,-249.25 1021,-281.25"/>
<polyline fill="none" stroke="black" points="1017,-277.25 967,-277.25"/>
<polyline fill="none" stroke="black" points="1017,-277.25 1017,-245.25"/>
<polyline fill="none" stroke="black" points="1017,-277.25 1021,-281.25"/>
<text text-anchor="middle" x="994" y="-260.52" font-family="Times,serif" font-size="8.00">16B</text>
</a>
</g>
</g>
<!-- N8&#45;&gt;NN8_0 -->
<g id="edge12" class="edge">
<title>N8&#45;&gt;NN8_0</title>
<g id="a_edge12"><a xlink:title="14.50MB">
<path fill="none" stroke="black" d="M994,-357.89C994,-337.06 994,-311.9 994,-292.9"/>
<polygon fill="black" stroke="black" points="997.5,-292.93 994,-282.93 990.5,-292.93 997.5,-292.93"/>
</a>
</g>
<g id="a_edge12&#45;label"><a xlink:title="14.50MB">
<text text-anchor="middle" x="1022.12" y="-308.7" font-family="Times,serif" font-size="14.00"> 14.50MB</text>
</a>
</g>
</g>
<!-- N13 -->
<g id="node13" class="node">
<title>N13</title>
<g id="a_node13"><a xlink:title="github.com/amitiwary999/go&#45;cache.NewCacheRing[go.shape.string] (7.50MB)">
<polygon fill="#edeceb" stroke="#b2afa7" points="341.5,-581.75 256.5,-581.75 256.5,-525 341.5,-525 341.5,-581.75"/>
<text text-anchor="middle" x="299" y="-570.15" font-family="Times,serif" font-size="8.00">go&#45;cache</text>
<text text-anchor="middle" x="299" y="-560.4" font-family="Times,serif" font-size="8.00">NewCacheRing[go</text>
<text text-anchor="middle" x="299" y="-550.65" font-family="Times,serif" font-size="8.00">shape</text>
<text text-anchor="middle" x="299" y="-540.9" font-family="Times,serif" font-size="8.00">string]</text>
<text text-anchor="middle" x="299" y="-531.15" font-family="Times,serif" font-size="8.00">0 of 7.50MB (1.23%)</text>
</a>
</g>
</g>
<!-- N9&#45;&gt;N13 -->
<g id="edge27" class="edge">
<title>N9&#45;&gt;N13</title>
<g id="a_edge27"><a xlink:title="github.com/amitiwary999/go&#45;cache.NewBigCacheRing &#45;&gt; github.com/amitiwary999/go&#45;cache.NewCacheRing[go.shape.string] (7.50MB)">
<path fill="none" stroke="#b2afa7" d="M378.13,-677.75C368.19,-665.39 355.04,-648.45 344.5,-632.75 335.77,-619.74 326.94,-604.98 319.42,-591.82"/>
<polygon fill="#b2afa7" stroke="#b2afa7" points="322.65,-590.42 314.68,-583.43 316.55,-593.86 322.65,-590.42"/>
</a>
</g>
<g id="a_edge27&#45;label"><a xlink:title="github.com/amitiwary999/go&#45;cache.NewBigCacheRing &#45;&gt; github.com/amitiwary999/go&#45;cache.NewCacheRing[go.shape.string] (7.50MB)">
<text text-anchor="middle" x="369.75" y="-619.45" font-family="Times,serif" font-size="14.00"> 7.50MB</text>
<text text-anchor="middle" x="369.75" y="-602.95" font-family="Times,serif" font-size="14.00"> (inline)</text>
</a>
</g>
</g>
<!-- N16 -->
<g id="node16" class="node">
<title>N16</title>
<g id="a_node16"><a xlink:title="github.com/bits&#45;and&#45;blooms/bloom/v3.NewWithEstimates (7.66MB)">
<polygon fill="#edeceb" stroke="#b2afa7" points="445.5,-572 360.5,-572 360.5,-534.75 445.5,-534.75 445.5,-572"/>
<text text-anchor="middle" x="403" y="-560.4" font-family="Times,serif" font-size="8.00">bloom</text>
<text text-anchor="middle" x="403" y="-550.65" font-family="Times,serif" font-size="8.00">NewWithEstimates</text>
<text text-anchor="middle" x="403" y="-540.9" font-family="Times,serif" font-size="8.00">0 of 7.66MB (1.25%)</text>
</a>
</g>
</g>
<!-- N9&#45;&gt;N16 -->
<g id="edge24" class="edge">
<title>N9&#45;&gt;N16</title>
<g id="a_edge24"><a xlink:title="github.com/amitiwary999/go&#45;cache.NewBigCacheRing &#45;&gt; github.com/bits&#45;and&#45;blooms/bloom/v3.NewWithEstimates (7.66MB)">
<path fill="none" stroke="#b2afa7" d="M394.27,-677.84C395.95,-654.05 398.94,-611.72 400.95,-583.34"/>
<polygon fill="#b2afa7" stroke="#b2afa7" points="404.42,-583.87 401.64,-573.64 397.44,-583.37 404.42,-583.87"/>
</a>
</g>
<g id="a_edge24&#45;label"><a xlink:title="github.com/amitiwary999/go&#45;cache.NewBigCacheRing &#45;&gt; github.com/bits&#45;and&#45;blooms/bloom/v3.NewWithEstimates (7.66MB)">
<text text-anchor="middle" x="424.75" y="-611.2" font-family="Times,serif" font-size="14.00"> 7.66MB</text>
</a>
</g>
</g>
<!-- N10 -->
<g id="node10" class="node">
<title>N10</title>
<g id="a_node10"><a xlink:title="github.com/bits&#45;and&#45;blooms/bitset.New (7.66MB)">
<polygon fill="#edeceb" stroke="#b2afa7" points="448.12,-287.5 357.88,-287.5 357.88,-239 448.12,-239 448.12,-287.5"/>
<text text-anchor="middle" x="403" y="-273.05" font-family="Times,serif" font-size="11.00">bitset</text>
<text text-anchor="middle" x="403" y="-259.55" font-family="Times,serif" font-size="11.00">New</text>
<text text-anchor="middle" x="403" y="-246.05" font-family="Times,serif" font-size="11.00">7.66MB (1.25%)</text>
</a>
</g>
</g>
<!-- NN10_0 -->
<g id="NN10_0" class="node">
<title>NN10_0</title>
<g id="a_NN10_0"><a xlink:title="7.66MB">
<polygon fill="#f8f8f8" stroke="black" points="430,-155.5 380,-155.5 376,-151.5 376,-119.5 426,-119.5 430,-123.5 430,-155.5"/>
<polyline fill="none" stroke="black" points="426,-151.5 376,-151.5"/>
<polyline fill="none" stroke="black" points="426,-151.5 426,-119.5"/>
<polyline fill="none" stroke="black" points="426,-151.5 430,-155.5"/>
<text text-anchor="middle" x="403" y="-134.78" font-family="Times,serif" font-size="8.00">1.15MB</text>
</a>
</g>
</g>
<!-- N10&#45;&gt;NN10_0 -->
<g id="edge13" class="edge">
<title>N10&#45;&gt;NN10_0</title>
<g id="a_edge13"><a xlink:title="7.66MB">
<path fill="none" stroke="black" d="M403,-238.68C403,-218.42 403,-189.13 403,-167.45"/>
<polygon fill="black" stroke="black" points="406.5,-167.5 403,-157.5 399.5,-167.5 406.5,-167.5"/>
</a>
</g>
<g id="a_edge13&#45;label"><a xlink:title="7.66MB">
<text text-anchor="middle" x="427.75" y="-207.7" font-family="Times,serif" font-size="14.00"> 7.66MB</text>
</a>
</g>
</g>
<!-- N11 -->
<g id="node11" class="node">
<title>N11</title>
<g id="a_node11"><a xlink:title="container/ring.New (7.50MB)">
<polygon fill="#edeceb" stroke="#b2afa7" points="342.12,-422.25 251.88,-422.25 251.88,-373.75 342.12,-373.75 342.12,-422.25"/>
<text text-anchor="middle" x="297" y="-407.8" font-family="Times,serif" font-size="11.00">ring</text>
<text text-anchor="middle" x="297" y="-394.3" font-family="Times,serif" font-size="11.00">New</text>
<text text-anchor="middle" x="297" y="-380.8" font-family="Times,serif" font-size="11.00">7.50MB (1.23%)</text>
</a>
</g>
</g>
<!-- NN11_0 -->
<g id="NN11_0" class="node">
<title>NN11_0</title>
<g id="a_NN11_0"><a xlink:title="7.50MB">
<polygon fill="#f8f8f8" stroke="black" points="324,-281.25 274,-281.25 270,-277.25 270,-245.25 320,-245.25 324,-249.25 324,-281.25"/>
<polyline fill="none" stroke="black" points="320,-277.25 270,-277.25"/>
<polyline fill="none" stroke="black" points="320,-277.25 320,-245.25"/>
<polyline fill="none" stroke="black" points="320,-277.25 324,-281.25"/>
<text text-anchor="middle" x="297" y="-260.52" font-family="Times,serif" font-size="8.00">32B</text>
</a>
</g>
</g>
<!-- N11&#45;&gt;NN11_0 -->
<g id="edge14" class="edge">
<title>N11&#45;&gt;NN11_0</title>
<g id="a_edge14"><a xlink:title="7.50MB">
<path fill="none" stroke="black" d="M297,-373.27C297,-350.68 297,-316.68 297,-292.66"/>
<polygon fill="black" stroke="black" points="300.5,-292.96 297,-282.96 293.5,-292.96 300.5,-292.96"/>
</a>
</g>
<g id="a_edge14&#45;label"><a xlink:title="7.50MB">
<text text-anchor="middle" x="321.75" y="-308.7" font-family="Times,serif" font-size="14.00"> 7.50MB</text>
</a>
</g>
</g>
<!-- N12 -->
<g id="node12" class="node">
<title>N12</title>
<g id="a_node12"><a xlink:title="testing.tRunner (3.83MB)">
<polygon fill="#edecec" stroke="#b2b1ac" points="435.5,-927.12 350.5,-927.12 350.5,-889.88 435.5,-889.88 435.5,-927.12"/>
<text text-anchor="middle" x="393" y="-915.52" font-family="Times,serif" font-size="8.00">testing</text>
<text text-anchor="middle" x="393" y="-905.77" font-family="Times,serif" font-size="8.00">tRunner</text>
<text text-anchor="middle" x="393" y="-896.02" font-family="Times,serif" font-size="8.00">0 of 3.83MB (0.63%)</text>
</a>
</g>
</g>
<!-- N14 -->
<g id="node14" class="node">
<title>N14</title>
<g id="a_node14"><a xlink:title="github.com/amitiwary999/go&#45;cache.TestBigRingCache (3.83MB)">
<polygon fill="#edecec" stroke="#b2b1ac" points="435.5,-832.5 350.5,-832.5 350.5,-795.25 435.5,-795.25 435.5,-832.5"/>
<text text-anchor="middle" x="393" y="-820.9" font-family="Times,serif" font-size="8.00">go&#45;cache</text>
<text text-anchor="middle" x="393" y="-811.15" font-family="Times,serif" font-size="8.00">TestBigRingCache</text>
<text text-anchor="middle" x="393" y="-801.4" font-family="Times,serif" font-size="8.00">0 of 3.83MB (0.63%)</text>
</a>
</g>
</g>
<!-- N12&#45;&gt;N14 -->
<g id="edge31" class="edge">
<title>N12&#45;&gt;N14</title>
<g id="a_edge31"><a xlink:title="testing.tRunner &#45;&gt; github.com/amitiwary999/go&#45;cache.TestBigRingCache (3.83MB)">
<path fill="none" stroke="#b2b1ac" d="M393,-889.64C393,-876.78 393,-859.14 393,-844.23"/>
<polygon fill="#b2b1ac" stroke="#b2b1ac" points="396.5,-844.51 393,-834.51 389.5,-844.51 396.5,-844.51"/>
</a>
</g>
<g id="a_edge31&#45;label"><a xlink:title="testing.tRunner &#45;&gt; github.com/amitiwary999/go&#45;cache.TestBigRingCache (3.83MB)">
<text text-anchor="middle" x="417.75" y="-853.7" font-family="Times,serif" font-size="14.00"> 3.83MB</text>
</a>
</g>
</g>
<!-- N13&#45;&gt;N11 -->
<g id="edge28" class="edge">
<title>N13&#45;&gt;N11</title>
<g id="a_edge28"><a xlink:title="github.com/amitiwary999/go&#45;cache.NewCacheRing[go.shape.string] &#45;&gt; container/ring.New (7.50MB)">
<path fill="none" stroke="#b2afa7" d="M298.64,-524.6C298.31,-499.18 297.81,-461.46 297.46,-434"/>
<polygon fill="#b2afa7" stroke="#b2afa7" points="300.96,-434.02 297.33,-424.06 293.96,-434.11 300.96,-434.02"/>
</a>
</g>
<g id="a_edge28&#45;label"><a xlink:title="github.com/amitiwary999/go&#45;cache.NewCacheRing[go.shape.string] &#45;&gt; container/ring.New (7.50MB)">
<text text-anchor="middle" x="323.75" y="-493.7" font-family="Times,serif" font-size="14.00"> 7.50MB</text>
<text text-anchor="middle" x="323.75" y="-477.2" font-family="Times,serif" font-size="14.00"> (inline)</text>
</a>
</g>
</g>
<!-- N14&#45;&gt;N9 -->
<g id="edge30" class="edge">
<title>N14&#45;&gt;N9</title>
<g id="a_edge30"><a xlink:title="github.com/amitiwary999/go&#45;cache.TestBigRingCache &#45;&gt; github.com/amitiwary999/go&#45;cache.NewBigCacheRing (3.83MB)">
<path fill="none" stroke="#b2b1ac" d="M393,-794.89C393,-776.72 393,-748.37 393,-726.97"/>
<polygon fill="#b2b1ac" stroke="#b2b1ac" points="396.5,-727.13 393,-717.13 389.5,-727.13 396.5,-727.13"/>
</a>
</g>
<g id="a_edge30&#45;label"><a xlink:title="github.com/amitiwary999/go&#45;cache.TestBigRingCache &#45;&gt; github.com/amitiwary999/go&#45;cache.NewBigCacheRing (3.83MB)">
<text text-anchor="middle" x="417.75" y="-763.95" font-family="Times,serif" font-size="14.00"> 3.83MB</text>
</a>
</g>
</g>
<!-- N15 -->
<g id="node15" class="node">
<title>N15</title>
<g id="a_node15"><a xlink:title="github.com/bits&#45;and&#45;blooms/bloom/v3.New (7.66MB)">
<polygon fill="#edeceb" stroke="#b2afa7" points="445.5,-416.62 360.5,-416.62 360.5,-379.38 445.5,-379.38 445.5,-416.62"/>
<text text-anchor="middle" x="403" y="-405.02" font-family="Times,serif" font-size="8.00">bloom</text>
<text text-anchor="middle" x="403" y="-395.27" font-family="Times,serif" font-size="8.00">New</text>
<text text-anchor="middle" x="403" y="-385.52" font-family="Times,serif" font-size="8.00">0 of 7.66MB (1.25%)</text>
</a>
</g>
</g>
<!-- N15&#45;&gt;N10 -->
<g id="edge25" class="edge">
<title>N15&#45;&gt;N10</title>
<g id="a_edge25"><a xlink:title="github.com/bits&#45;and&#45;blooms/bloom/v3.New &#45;&gt; github.com/bits&#45;and&#45;blooms/bitset.New (7.66MB)">
<path fill="none" stroke="#b2afa7" d="M403,-379.1C403,-358.69 403,-324.85 403,-299.17"/>
<polygon fill="#b2afa7" stroke="#b2afa7" points="406.5,-299.18 403,-289.18 399.5,-299.18 406.5,-299.18"/>
</a>
</g>
<g id="a_edge25&#45;label"><a xlink:title="github.com/bits&#45;and&#45;blooms/bloom/v3.New &#45;&gt; github.com/bits&#45;and&#45;blooms/bitset.New (7.66MB)">
<text text-anchor="middle" x="427.75" y="-308.7" font-family="Times,serif" font-size="14.00"> 7.66MB</text>
</a>
</g>
</g>
<!-- N16&#45;&gt;N15 -->
<g id="edge26" class="edge">
<title>N16&#45;&gt;N15</title>
<g id="a_edge26"><a xlink:title="github.com/bits&#45;and&#45;blooms/bloom/v3.NewWithEstimates &#45;&gt; github.com/bits&#45;and&#45;blooms/bloom/v3.New (7.66MB)">
<path fill="none" stroke="#b2afa7" d="M403,-534.48C403,-508.39 403,-459.61 403,-428.25"/>
<polygon fill="#b2afa7" stroke="#b2afa7" points="406.5,-428.29 403,-418.29 399.5,-428.29 406.5,-428.29"/>
</a>
</g>
<g id="a_edge26&#45;label"><a xlink:title="github.com/bits&#45;and&#45;blooms/bloom/v3.NewWithEstimates &#45;&gt; github.com/bits&#45;and&#45;blooms/bloom/v3.New (7.66MB)">
<text text-anchor="middle" x="427.75" y="-485.45" font-family="Times,serif" font-size="14.00"> 7.66MB</text>
</a>
</g>
</g>
<!-- N17&#45;&gt;N4 -->
<g id="edge16" class="edge">
<title>N17&#45;&gt;N4</title>
<g id="a_edge16"><a xlink:title="testing.(*B).runN &#45;&gt; github.com/amitiwary999/go&#45;cache.BenchmarkBigCache (603.94MB)">
<path fill="none" stroke="#b20000" stroke-width="5" d="M548,-884.6C548,-873.88 548,-860.88 548,-849.02"/>
<polygon fill="#b20000" stroke="#b20000" stroke-width="5" points="552.38,-849.11 548,-839.11 543.63,-849.11 552.38,-849.11"/>
</a>
</g>
<g id="a_edge16&#45;label"><a xlink:title="testing.(*B).runN &#45;&gt; github.com/amitiwary999/go&#45;cache.BenchmarkBigCache (603.94MB)">
<text text-anchor="middle" x="579.5" y="-853.7" font-family="Times,serif" font-size="14.00"> 603.94MB</text>
</a>
</g>
</g>
</g>
</g></svg>
